inDegrees=yes
name=ik_MT_2026-09-03_17h20_01210270-000-000_orientations
DataType=double
version=3
OpenSimVersion=4.5
endheader
time	pelvis_tilt	pelvis_list	pelvis_rotation	pelvis_tx	pelvis_ty	pelvis_tz	hip_flexion_r	hip_adduction_r	hip_rotation_r	knee_angle_r	knee_angle_r_beta	ankle_angle_r	subtalar_angle_r	mtp_angle_r	hip_flexion_l	hip_adduction_l	hip_rotation_l	knee_angle_l	knee_angle_l_beta	ankle_angle_l	subtalar_angle_l	mtp_angle_l	lumbar_extension	lumbar_bending	lumbar_rotation	arm_flex_r	arm_add_r	arm_rot_r	elbow_flex_r	pro_sup_r	wrist_flex_r	wrist_dev_r	arm_flex_l	arm_add_l	arm_rot_l	elbow_flex_l	pro_sup_l	wrist_flex_l	wrist_dev_l
86.3	4.01531558867241	-2.982909789116504	-1781.593421341184	0	0.9399999999999999	0	-1.000170832542673	7.641006612158263	-5.158302855458753	-13.58224234931198	-0.2370548487993038	-12.09280034256027	0	0	25.37412079385627	-3.084811616610541	24.49390056615769	63.55998087039063	1.109330938692928	-28.93404395870364	0	0	-2.722697266884308	7.126558002367235	-8.021590186673977	4.916162791439431	-6.325466671258469	24.4980172725923	0.05713990585626902	45.00000025534049	0	0	5.554442730358387	3.194939502480929	20.2753649742102	4.131372431608375	45.00000025534049	0	0
86.325	3.933575012986679	-2.850099974468287	-1782.740845639946	0	0.9399999999999999	0	-1.979559070498063	8.105128187914108	-4.341632705462623	-13.19469182689767	-0.23029081616535	-10.91965389519124	0	0	29.54539829495925	-3.487701159427881	23.81374993696868	62.06797101395968	1.083290454226	-28.53056991240004	0	0	-2.613479007546163	6.604015702875436	-7.371878288405918	7.34373372353884	-6.030472479893465	26.16471551619794	0.06280653921212734	45.00000025534049	0	0	3.350460452127709	2.330022061543901	17.71884691576682	1.379520781916247	45.00000025534049	0	0
86.34999999999999	4.021025064236572	-2.656609681330194	-1784.180830749356	0	0.9399999999999999	0	-3.255793902611384	8.505732589142269	-4.201371615742453	-12.65374162503954	-0.2208494540535977	-9.742780340601611	0	0	32.83115509883015	-3.507588261223947	22.92208630720028	58.74551502255387	1.025302657923356	-28.22779604747355	0	0	-3.090294245233326	6.129543782791758	-6.447537187424102	10.26846718545279	-5.753607454029214	28.11541632241155	0.07130339060696915	45.00000025534049	0	0	1.057314027752285	1.36125988703188	13.91455061575084	0.3182106516349895	45.00000025534049	0	0
86.375	4.084917118535252	-2.291426503613848	-1785.834306237879	0	0.9399999999999999	0	-4.293879632717538	8.53420672762001	-3.579915349016992	-11.76155300950943	-0.2052778251637875	-8.478005558912452	0	0	34.55544851997603	-2.951213279917921	21.15065464745318	52.60665714125827	0.9181593755827446	-27.96182094424115	0	0	-3.481083288587059	5.525313275425976	-5.543785125793292	13.16657106701274	-5.45340312169164	30.28222098112041	0.08656585546480595	45.00000025534049	0	0	-1.456285595128659	0.4707934870078155	9.224848467352501	0.152440602048666	45.00000025534049	0	0
86.40000000000001	3.873031775166715	-2.028240044736482	-1787.717739062714	0	0.9399999999999999	0	-4.950300145901399	8.413152721054882	-2.323000124695623	-11.03256501904936	-0.1925545845227622	-7.440784152729496	0	0	34.65463561799842	-2.312106059176996	18.88052303331786	43.65421215113321	0.761909734401391	-27.94310323224047	0	0	-3.405067665785808	5.004936945789665	-4.488169151111454	15.84984033437596	-5.186950835568633	32.55562825915732	0.116477976125048	45.00000025534049	0	0	-4.002788162359737	-0.1704563093110137	4.63962177336168	0.1009256066141392	45.00000025534049	0	0
86.425	3.743212630103675	-2.011328123467475	-1789.804230667551	0	0.9399999999999999	0	-5.892566426833449	8.612766526018582	-0.8373083915065236	-10.54236694804077	-0.1839990141967373	-6.439075581249024	0	0	33.44030519398476	-2.524287293229572	15.89195200295507	33.40850593099945	0.5830884266679939	-27.77640893857876	0	0	-3.639920863095918	4.775295803025452	-3.334386335137792	18.67726535933786	-4.827674969649239	34.97262665747387	0.1887205654513825	45.00000025534049	0	0	-6.105410990760387	-0.5665543230410529	0.4238639142183347	0.0769239595298761	45.00000025534049	0	0
86.45	3.806540166981072	-2.248284491972549	-1791.953360061565	0	0.9399999999999999	0	-7.147587671116626	9.065570282958916	0.5528753637680003	-10.09891080599285	-0.1762592444298095	-5.42696788988211	0	0	31.13786574024234	-2.707346013255029	13.51239054576812	22.81619058423546	0.3982176484574374	-27.8849028881888	0	0	-4.308550936900495	4.803615031535659	-2.24613374148916	21.5674597925819	-4.375333067698072	37.47563462528236	0.5107257958118326	45.00000025534049	0	0	-7.738989700038736	-0.8625623115179186	-3.348227253470813	0.06441769864076671	45.00000025534049	0	0
86.47499999999999	4.040918064512125	-2.593885845544303	-1794.094299540596	0	0.9399999999999999	0	-8.385718851430305	9.540470424983583	1.960216394304382	-9.474744640307748	-0.165365489759056	-4.407254914236721	0	0	28.42174578947526	-2.508352417270864	12.40678995851743	13.63492618992567	0.2379743552806086	-26.67268714314785	0	0	-4.901132082097703	4.879559597178076	-1.365506334279858	23.67748816113943	-4.338450611928262	40.00219693228041	2.404847303667126	45.00000025534049	0	0	-9.41870791887585	-1.115329366612723	-6.457916422817403	0.0580516882172042	45.00000025534049	0	0
86.5	4.535621109959077	-2.845918807308783	-1796.166411546095	0	0.9399999999999999	0	-9.7769988099146	9.78389944649367	3.311328617877871	-8.670605123017344	-0.1513306075369406	-3.411920660964157	0	0	26.17925596766368	-2.180975950659024	12.8873804986413	7.0932999638345	0.1238014392005067	-23.80853276106257	0	0	-5.594420607032794	4.813630984707837	-0.6760006645812257	25.28633276318412	-4.724550380495971	42.45177888653451	5.509651539872628	45.00000025534049	0	0	-11.17390447046694	-1.298241950895099	-8.503493654091386	0.05582817078493734	45.00000025534049	0	0
86.52500000000001	4.938085051971545	-2.888323945889939	-1798.250361392574	0	0.9399999999999999	0	-11.26551667604141	9.726533388055532	4.658805328093393	-7.983753297177922	-0.1393427817027081	-2.356370136903522	0	0	25.19828379733847	-1.108932368599329	14.00426503321967	3.640435209762854	0.06353758061589222	-19.60427465637787	0	0	-6.051451967624782	4.440217565878208	-0.1624552055258943	26.7189014116712	-5.205025607536979	44.63175974806443	8.962271217223647	45.00000025534049	0	0	-13.0222840508449	-1.306667456773885	-9.685342855864409	0.05677242188377437	45.00000025534049	0	0
86.55	5.515044994967566	-2.605508481167474	-1799.920491772746	0	0.9399999999999999	0	-12.87775434138201	9.317667981296738	5.583035429086405	-7.233428253246526	-0.1262471392259341	-1.401189770494342	0	0	24.47583184971056	0.5806625926746881	15.62319911423438	2.818603871492278	0.04919391786699939	-13.85100188803898	0	0	-6.42496653037204	3.70265136094486	-0.1032488082790135	27.80546314999621	-5.928711481398397	46.1580988935891	12.74329670451889	45.00000025534049	0	0	-15.02952368155321	-1.218060310189484	-10.26101046669041	0.06029004551610814	45.00000025534049	0	0
86.575	6.038614494933139	-1.857878569478847	-1801.060298361942	0	0.9399999999999999	0	-14.26614454030947	8.449881849839016	6.132080840700846	-6.161281249554913	-0.1075346439461237	-0.4664165805660888	0	0	24.13169636713939	2.769407808138469	16.7210309377691	4.832851376139876	0.08434916877317976	-7.550896883558966	0	0	-6.51387251707607	2.600409761746499	-0.5683820093089115	28.33775739437199	-7.127118949260182	46.87448419017564	16.96785606525707	45.00000025534049	0	0	-17.07652583178173	-0.9000984415821329	-10.40713824772023	0.06626218876897541	45.00000025534049	0	0
86.59999999999999	6.086668451476624	-1.094605696648422	-1802.055249256081	0	0.9399999999999999	0	-14.65518025618265	7.582038236979266	6.487080723221346	-4.372327348896648	-0.07631150821324137	0.8740675879474321	0	0	24.13104395760003	4.34731838742355	17.33989954602185	8.390131231343855	0.1464354146613563	-0.8513698051290483	0	0	-6.160292634626245	1.472842088088435	-1.124139368884378	28.50489267653464	-8.434134314768476	46.68065569555675	21.16884448610416	45.00000025534049	0	0	-18.77785059596033	-0.568108653648094	-10.30743224935655	0.07418515245441869	45.00000025534049	0	0
86.625	5.831817978647396	-0.6297338647613024	-1802.49547968346	0	0.9399999999999999	0	-13.8706605496383	6.81143408238441	5.910755002563323	-1.444775763509738	-0.02521609402625987	2.240516706233889	0	0	22.84489575387953	4.19225971173371	16.90608217140158	7.881053308163919	0.1375503287526517	1.287627355902996	0	0	-5.54980257264145	0.7233979327537604	-2.005222885384373	28.29346948469735	-10.13155902351449	45.31116285576649	25.55370011581884	45.00000025534049	0	0	-19.98202381988196	-0.2864592558314885	-9.96959554843005	0.08421864883127377	45.00000025534049	0	0
86.65000000000001	5.802798959300802	0.0166806745464634	-1801.856411269492	0	0.9399999999999999	0	-11.53140459238651	5.550521240475751	3.587170356174517	3.96633594762171	0.06922562152620819	2.380719235462063	0	0	22.46986958086194	6.220352090672266	20.01863655981466	9.99725696998691	0.1744850502942235	1.367339473026786	0	0	-4.99050064965484	-0.05261149933941541	-3.810970305351295	27.14945982322111	-12.1818679794962	43.2325112484409	29.89803826617113	45.00000025534049	0	0	-20.79341987400983	0.09651350000676936	-9.353058519311864	0.09624099255863272	45.00000025534049	0	0
86.675	4.710663298585962	0.6581439127424079	-1801.306448380293	0	0.9399999999999999	0	-6.562156962511712	3.547391281008105	0.08287676453636983	12.01535247344348	0.2097074614492332	-2.9288230003469	0	0	24.92995117357501	8.077619783956127	22.74401323110671	15.68042400403272	0.2736750269791235	2.78467904211656	0	0	-2.276862680547504	-0.9206150135389094	-5.892728807013061	24.20803913926173	-13.23080546842244	41.50503476957752	33.3774216435117	45.00000025534049	0	0	-22.21291069297003	0.6521467807332787	-8.983948240247738	0.1109867932583439	45.00000025534049	0	0
86.7	5.452769334696213	1.188705842811409	-1801.635505498784	0	0.9399999999999999	0	-2.582760997724594	0.1643918802119196	-2.638064539096804	22.13983717907196	0.386413054630259	-11.70036069292024	0	0	23.42240401906659	8.786150596306371	22.65763483493214	17.26170537804371	0.3012735933560753	-0.6524138509806212	0	0	-2.943826352044506	-1.756391824204074	-7.01186185198268	22.63188744958511	-13.18765913258356	40.02597272550761	35.38966353682567	45.00000025534049	0	0	-21.40676951033801	0.9542053185898762	-8.349722781009049	0.1280846823149933	45.00000025534049	0	0
86.72499999999999	6.193960754733761	1.464761738000461	-1802.889725226441	0	0.9399999999999999	0	1.754168341192032	-3.041661270767253	-3.945230080203823	32.9021887787871	0.5742515253025671	-17.54076630333987	0	0	19.66281240695297	8.19989103030357	20.75841919481817	15.92682760005805	0.2779755810185195	-3.800904713760643	0	0	-6.196975410142644	-2.122439603014815	-6.736484478917061	23.70477348555725	-12.55027939186704	38.67061771458973	35.74742411343009	45.00000025534049	0	0	-17.27509235772568	0.8353118838071065	-6.578410080554111	0.1536291687307693	45.00000025534049	0	0
86.75	6.587248859640021	1.895922984102739	-1804.762319302098	0	0.9399999999999999	0	5.256071946451807	-5.53764029464366	-5.047452325077754	42.24276528629822	0.7372753393930691	-20.06034335626645	0	0	16.54014299335344	6.952408761602562	18.11753520938276	14.31597135211552	0.2498608357156003	-6.591148279603754	0	0	-7.264720837755407	-2.690932974414766	-6.604548992923799	23.22142843099439	-11.34058817280235	38.81758575115636	34.41934460459024	45.00000025534049	0	0	-14.53637970175752	1.042142175110893	-4.740559936646752	0.2288074533336421	45.00000025534049	0	0
86.77500000000001	6.58424354688919	2.640859091272288	-1806.662899728594	0	0.9399999999999999	0	9.11547963496378	-9.941280512785831	-5.589367184379728	51.58249808690571	0.9002844280201807	-24.53708522295947	0	0	14.74517493955356	6.158086815446493	15.8828658541944	13.2716997734885	0.23163485838356	-7.762261286775383	0	0	-7.382387037443521	-3.640539807612555	-6.665364483895755	22.15353140618156	-10.13214796868219	39.26265679158892	32.17698207043028	45.00000025534049	0	0	-11.95329696148936	1.062129000172894	-2.91645420795605	0.4415985268222809	45.00000025534049	0	0
86.8	6.819609309463007	3.054034561130469	-1808.12022306246	0	0.9399999999999999	0	12.64850741249075	-14.44723545162002	-5.776765461295914	60.298116939599	1.052400673348569	-23.93143286132207	0	0	12.91248950469984	5.961804994864909	15.41638104887418	12.49845293469154	0.2181391551159152	-8.183934811910129	0	0	-7.872037274840406	-4.487203255646632	-6.921071497375601	20.81053767662801	-8.832181907217157	39.37500889441375	29.27925501870074	45.00000025534049	0	0	-9.218921414466049	0.3021243618075138	-1.040654877984974	1.183117887529206	45.00000025534049	0	0
